<?xml version="1.0" encoding="UTF-8"?>
<svg version="1.1" xmlns="http://www.w3.org/2000/svg" width="1024" height="1024">
<path d="M0 0 C337.92 0 675.84 0 1024 0 C1024 337.92 1024 675.84 1024 1024 C686.08 1024 348.16 1024 0 1024 C0 686.08 0 348.16 0 0 Z " fill="#060507" transform="translate(0,0)"/>
<path d="M0 0 C32.34 0 64.68 0 98 0 C98 9.9 98 19.8 98 30 C106.91 30 115.82 30 125 30 C125 39.9 125 49.8 125 60 C129.62 60 134.24 60 139 60 C139 64.62 139 69.24 139 74 C143.62 74 148.24 74 153 74 C153 82.25 153 90.5 153 99 C161.91 99 170.82 99 180 99 C180 109.23 180 119.46 180 130 C185.61 130 191.22 130 197 130 C197 138.25 197 146.5 197 155 C203.6 155 210.2 155 217 155 C217 103.85 217 52.7 217 0 C247.03 0 277.06 0 308 0 C308 130.35 308 260.7 308 395 C285.89 395 263.78 395 241 395 C241 386.09 241 377.18 241 368 C233.08 368 225.16 368 217 368 C217 350.84 217 333.68 217 316 C209.41 316 201.82 316 194 316 C194 306.1 194 296.2 194 286 C187.07 286 180.14 286 173 286 C173 269.5 173 253 173 236 C164.42 236 155.84 236 147 236 C147 226.43 147 216.86 147 207 C139.74 207 132.48 207 125 207 C125 189.84 125 172.68 125 155 C116.09 155 107.18 155 98 155 C98 234.53 98 314.06 98 396 C65.66 396 33.32 396 0 396 C0 265.32 0 134.64 0 0 Z " fill="#FCFCFD" transform="translate(524,312)"/>
<path d="M0 0 C97.68 0 195.36 0 296 0 C296 29.37 296 58.74 296 89 C263.99 89 231.98 89 199 89 C199 189.98 199 290.96 199 395 C165.01 395 131.02 395 96 395 C96 294.02 96 193.04 96 89 C64.32 89 32.64 89 0 89 C0 59.63 0 30.26 0 0 Z " fill="#FDFDFD" transform="translate(195,312)"/>
</svg>
